HIERARCHY
ROOT Hips
{
	OFFSET 0.000000 0.000000 0.000000
	CHANNELS 6 Xposition Yposition Zposition Zrotation Yrotation Xrotation 
	JOINT LowerBack
	{
		OFFSET 0.000000 0.000000 0.000000
		CHANNELS 3 Zrotation Yrotation Xrotation
		JOINT Spine
		{
			OFFSET 0.028270 2.035590 -0.193380
			CHANNELS 3 Zrotation Yrotation Xrotation
			JOINT Spine1
			{
				OFFSET 0.056720 2.048850 -0.042750
				CHANNELS 3 Zrotation Yrotation Xrotation
				JOINT Neck
				{
					OFFSET 0.000000 0.000000 0.000000
					CHANNELS 3 Zrotation Yrotation Xrotation
					JOINT Neck1
					{
						OFFSET -0.054170 1.746240 0.172020
						CHANNELS 3 Zrotation Yrotation Xrotation
						JOINT Head
						{
							OFFSET 0.104070 1.761360 -0.123970
							CHANNELS 3 Zrotation Yrotation Xrotation
							End Site
							{
								OFFSET 0.000000 0.000000 0.000000
							}
						}
					}
				}
				JOINT LeftShoulder
				{
					OFFSET 0.000000 0.000000 0.000000
					CHANNELS 3 Zrotation Yrotation Xrotation
					JOINT LeftArm
					{
						OFFSET 3.362410 1.200890 -0.311210
						CHANNELS 3 Zrotation Yrotation Xrotation
						JOINT LeftForeArm
						{
							OFFSET 4.983000 -0.000000 -0.000000
							CHANNELS 3 Zrotation Yrotation Xrotation
							JOINT LeftHand
							{
								OFFSET 3.483560 -0.000000 -0.000000
								CHANNELS 3 Zrotation Yrotation Xrotation
								JOINT LeftFingerBase
								{
									OFFSET 0.000000 0.000000 0.000000
									CHANNELS 3 Zrotation Yrotation Xrotation
									JOINT LeftHandIndex1
									{
										OFFSET 0.715260 -0.000000 -0.000000
										CHANNELS 3 Zrotation Yrotation Xrotation
										End Site
										{
											OFFSET 0.000000 0.000000 0.000000
										}
									}
								}
								JOINT LThumb
								{
									OFFSET 0.000000 0.000000 0.000000
									CHANNELS 3 Zrotation Yrotation Xrotation
									End Site
									{
										OFFSET 0.000000 0.000000 0.000000
									}
								}
							}
						}
					}
				}
				JOINT RightShoulder
				{
					OFFSET 0.000000 0.000000 0.000000
					CHANNELS 3 Zrotation Yrotation Xrotation
					JOINT RightArm
					{
						OFFSET -3.136600 1.374050 -0.404650
						CHANNELS 3 Zrotation Yrotation Xrotation
						JOINT RightForeArm
						{
							OFFSET -5.241900 -0.000000 -0.000000
							CHANNELS 3 Zrotation Yrotation Xrotation
							JOINT RightHand
							{
								OFFSET -3.444170 -0.000000 -0.000000
								CHANNELS 3 Zrotation Yrotation Xrotation
								JOINT RightFingerBase
								{
									OFFSET 0.000000 0.000000 0.000000
									CHANNELS 3 Zrotation Yrotation Xrotation
									JOINT RightHandIndex1
									{
										OFFSET -0.622530 -0.000000 -0.000000
										CHANNELS 3 Zrotation Yrotation Xrotation
										End Site
										{
											OFFSET 0.000000 0.000000 0.000000
										}
									}
								}
								JOINT RThumb
								{
									OFFSET 0.000000 0.000000 0.000000
									CHANNELS 3 Zrotation Yrotation Xrotation
									End Site
									{
										OFFSET 0.000000 0.000000 0.000000
									}
								}
							}
						}
					}
				}
			}
		}
	}
}
}
MOTION
Frames: 10
Frame Time: 0.008333
-1.040679 16.802310 -0.580938 -175.129469 71.041087 -176.216301 3.434573 -4.560410 -0.700048 0.223380 -4.871670 -2.216269 -5.947195 -4.778008 3.078243 9.548136 -22.754053 -11.645843 -2.221497 -0.117807 -1.018525 0.000000 0.000000 0.000000 4.946314 18.757032 -0.255022 -43.788110 10.714968 1.087807 -0.427143 -80.830733 -0.001618 0.758867 0.511583 0.003082 -0.070042 0.208081 -0.000000 0.000000 0.000000 0.000000 0.000000 0.000000 0.000000 15.341032 -19.675648 -0.030222 80.909324 -18.347274 -11.499262 3.883952 27.364283 0.011744 -0.207750 4.579551 -0.013167 0.133842 -0.056083 -0.000000 0.000000 0.000000 0.000000 0.000000 0.000000 0.000000 
-0.850735 16.786738 -0.617923 -174.527591 69.762259 -175.882153 3.620913 -4.523516 -0.496045 0.245056 -4.841792 -2.195876 -5.983612 -4.746803 3.037403 9.579301 -22.675833 -11.603367 -2.251578 -0.120951 -1.007699 0.000000 0.000000 0.000000 4.866184 18.529379 -0.267168 -44.191409 10.517725 1.404583 -0.461260 -80.211453 -0.002073 0.884278 0.575806 0.004002 -0.072733 0.203903 -0.000000 0.000000 0.000000 0.000000 0.000000 0.000000 0.000000 15.433391 -19.616395 -0.022382 80.964120 -18.065510 -11.419493 3.873603 27.252581 0.011155 -0.181775 4.373285 -0.011478 0.132272 -0.054945 -0.000000 0.000000 0.000000 0.000000 0.000000 0.000000 0.000000 
-0.663871 16.770386 -0.655555 -173.941414 68.483654 -175.540242 3.811382 -4.468968 -0.300085 0.264726 -4.794318 -2.178648 -6.028338 -4.698112 2.992959 9.629180 -22.557931 -11.564563 -2.284661 -0.124307 -0.997895 0.000000 0.000000 0.000000 4.787975 18.300336 -0.277465 -44.696660 10.324014 1.745090 -0.499352 -79.516494 -0.002548 1.017717 0.654683 0.005225 -0.075798 0.198978 -0.000000 0.000000 0.000000 0.000000 0.000000 0.000000 0.000000 15.541131 -19.508110 -0.008543 80.979977 -17.688759 -11.356579 3.863255 27.063817 0.010535 -0.180923 4.158095 -0.010787 0.130779 -0.053833 -0.000000 0.000000 0.000000 0.000000 0.000000 0.000000 0.000000 
-0.480194 16.753457 -0.693820 -173.383472 67.220900 -175.193634 4.002755 -4.396972 -0.120274 0.282090 -4.729376 -2.165923 -6.080915 -4.632113 2.944812 9.693742 -22.395917 -11.529761 -2.321107 -0.127913 -0.989196 0.000000 0.000000 0.000000 4.704493 18.079504 -0.284251 -45.292137 10.145591 2.099705 -0.541112 -78.759510 -0.003013 1.151774 0.744432 0.006853 -0.079146 0.193325 -0.000000 0.000000 0.000000 0.000000 0.000000 0.000000 0.000000 15.662373 -19.343225 0.010004 80.946400 -17.225321 -11.287552 3.852917 26.819159 0.009891 -0.199105 3.933963 -0.010798 0.129353 -0.052763 -0.000000 0.000000 0.000000 0.000000 0.000000 0.000000 0.000000 
-0.299653 16.736292 -0.732728 -172.871488 65.984147 -174.851107 4.187920 -4.309134 0.036804 0.296449 -4.648241 -2.158397 -6.139499 -4.550149 2.894300 9.768379 -22.192480 -11.499534 -2.360226 -0.131704 -0.981762 0.000000 0.000000 0.000000 4.608458 17.878175 -0.286474 -45.968209 9.987990 2.459740 -0.586620 -77.947996 -0.003423 1.278560 0.839906 0.008781 -0.082664 0.186996 -0.000000 0.000000 0.000000 0.000000 0.000000 0.000000 0.000000 15.792488 -19.123549 0.031527 80.850583 -16.677348 -11.170231 3.842356 26.531667 0.009248 -0.238666 3.708477 -0.011409 0.128050 -0.051751 -0.000000 0.000000 0.000000 0.000000 0.000000 0.000000 0.000000 
-0.122232 16.719299 -0.772319 -172.428231 64.777042 -174.528417 4.356083 -4.208367 0.165609 0.306443 -4.553330 -2.156516 -6.201988 -4.454687 2.842639 9.848758 -21.950311 -11.473097 -2.401649 -0.135658 -0.975387 0.000000 0.000000 0.000000 4.493755 17.703814 -0.283390 -46.716521 9.856368 2.815094 -0.636240 -77.085309 -0.003754 1.389911 0.934970 0.010710 -0.086219 0.180056 -0.000000 0.000000 0.000000 0.000000 0.000000 0.000000 0.000000 15.928356 -18.852059 0.054047 80.682924 -16.049959 -10.975772 3.831391 26.215706 0.008615 -0.299170 3.487315 -0.012618 0.126907 -0.050815 -0.000000 0.000000 0.000000 0.000000 0.000000 0.000000 0.000000 
0.052189 16.703031 -0.812593 -172.078913 63.597460 -174.244473 4.493494 -4.098603 0.261336 0.310008 -4.447969 -2.160686 -6.266679 -4.349097 2.790484 9.931511 -21.669384 -11.448062 -2.445784 -0.139848 -0.969419 0.000000 0.000000 0.000000 4.355825 17.558739 -0.274361 -47.529284 9.756955 3.153977 -0.690614 -76.171107 -0.003981 1.479439 1.023279 0.012639 -0.089696 0.172562 -0.000000 0.000000 0.000000 0.000000 0.000000 0.000000 0.000000 16.070093 -18.529748 0.075524 80.437726 -15.353531 -10.698483 3.819986 25.889381 0.008005 -0.374324 3.272750 -0.013927 0.125919 -0.049983 -0.000000 0.000000 0.000000 0.000000 0.000000 0.000000 0.000000 
0.223613 16.687996 -0.853649 -171.842758 62.437648 -174.015816 4.587137 -3.984259 0.322674 0.305556 -4.335945 -2.170428 -6.330142 -4.237265 2.740063 10.012895 -21.358423 -11.423139 -2.491275 -0.144165 -0.963498 0.000000 0.000000 0.000000 4.192809 17.446162 -0.259567 -48.405091 9.686475 3.465237 -0.750834 -75.195798 -0.004080 1.542452 1.099645 0.014368 -0.092985 0.164624 -0.000000 0.000000 0.000000 0.000000 0.000000 0.000000 0.000000 16.212285 -18.168702 0.094147 80.109154 -14.589657 -10.311983 3.807861 25.558777 0.007438 -0.468158 3.074173 -0.015635 0.125156 -0.049263 -0.000000 0.000000 0.000000 0.000000 0.000000 0.000000 0.000000 
0.392024 16.674721 -0.895707 -171.724734 61.288653 -173.849185 4.630975 -3.868873 0.350595 0.292185 -4.220577 -2.185850 -6.391268 -4.122609 2.689917 10.089021 -21.010509 -11.393082 -2.539359 -0.148793 -0.956188 0.000000 0.000000 0.000000 4.002110 17.357052 -0.238478 -49.340248 9.654475 3.732597 -0.817926 -74.153694 -0.004060 1.579185 1.159128 0.015795 -0.096055 0.156305 0.000000 0.000000 0.000000 0.000000 0.000000 0.000000 0.000000 16.354233 -17.763127 0.108962 79.703581 -13.780182 -9.864618 3.795489 25.250873 0.006903 -0.561171 2.882654 -0.016941 0.124515 -0.048685 -0.000000 0.000000 0.000000 0.000000 0.000000 0.000000 0.000000 
0.557248 16.663599 -0.938955 -171.721927 60.141723 -173.747593 4.620125 -3.754977 0.350273 0.269726 -4.104046 -2.205374 -6.446328 -4.007433 2.642519 10.157417 -20.638124 -11.357147 -2.587646 -0.153519 -0.947312 0.000000 0.000000 0.000000 3.787434 17.292496 -0.212125 -50.341719 9.648720 3.943163 -0.893384 -73.023584 -0.003939 1.593150 1.200071 0.016620 -0.098891 0.147746 0.000000 0.000000 0.000000 0.000000 0.000000 0.000000 0.000000 16.487537 -17.329854 0.119055 79.218074 -12.922733 -9.329111 3.782423 24.963323 0.006420 -0.664353 2.711994 -0.018446 0.124111 -0.048248 -0.000000 0.000000 0.000000 0.000000 0.000000 0.000000 0.000000 
